<svg xmlns="http://www.w3.org/2000/svg" viewbox="0 0 100 100" width="100" height="100"><defs></defs><g>
<g>
	<path d="M15.000000,-0.000000C15.000000,-0.000000 85.000000,-0.000000 85.000000,-0.000000 C93.284271,-0.000000 100.000000,6.715729 100.000000,15.000000 C100.000000,15.000000 100.000000,85.000000 100.000000,85.000000 C100.000000,93.284271 93.284271,100.000000 85.000000,100.000000 C85.000000,100.000000 15.000000,100.000000 15.000000,100.000000 C6.715729,100.000000 0.000000,93.284271 0.000000,85.000000 C0.000000,85.000000 0.000000,15.000000 0.000000,15.000000 C0.000000,6.715729 6.715729,-0.000000 15.000000,-0.000000 C15.000000,-0.000000 15.000000,-0.000000 15.000000,-0.000000 ZM15.000000,-0.000000C15.000000,-0.000000 85.000000,-0.000000 85.000000,-0.000000 C93.284271,-0.000000 100.000000,6.715729 100.000000,15.000000 C100.000000,15.000000 100.000000,85.000000 100.000000,85.000000 C100.000000,93.284271 93.284271,100.000000 85.000000,100.000000 C85.000000,100.000000 15.000000,100.000000 15.000000,100.000000 C6.715729,100.000000 0.000000,93.284271 0.000000,85.000000 C0.000000,85.000000 0.000000,15.000000 0.000000,15.000000 C0.000000,6.715729 6.715729,-0.000000 15.000000,-0.000000 C15.000000,-0.000000 15.000000,-0.000000 15.000000,-0.000000 Z" fill="#d5ebff"/>
	<path d="M71.782830,48.037201C71.789392,48.037201 91.042925,48.037201 91.042925,48.037201 " fill="#ffffff" stroke="#ffffff" stroke-width="7" stroke-linecap="round" opacity="0.9"/>
	<path d="M36.511772,44.241214C36.511772,44.241214 64.582496,44.241214 64.582496,44.241214 C64.582496,44.241214 44.290361,76.817925 44.290361,76.817925 C44.290361,76.817925 16.219639,76.817925 16.219639,76.817925 C16.219639,76.817925 36.511772,44.241214 36.511772,44.241214 C36.511772,44.241214 36.511772,44.241214 36.511772,44.241214 ZM36.511772,44.241214C36.511772,44.241214 64.582496,44.241214 64.582496,44.241214 C64.582496,44.241214 44.290361,76.817925 44.290361,76.817925 C44.290361,76.817925 16.219639,76.817925 16.219639,76.817925 C16.219639,76.817925 36.511772,44.241214 36.511772,44.241214 C36.511772,44.241214 36.511772,44.241214 36.511772,44.241214 Z" fill="#94e170" stroke="#355027" stroke-width="6" stroke-linejoin="round"/>
	<path d="M64.582494,44.241214C64.582494,44.241214 36.511772,44.241214 36.511772,44.241214 C36.511772,44.241214 56.803907,78.333121 56.803907,78.333121 C56.803907,78.333121 84.874629,78.333121 84.874629,78.333121 C84.874629,78.333121 64.582494,44.241214 64.582494,44.241214 C64.582494,44.241214 64.582494,44.241214 64.582494,44.241214 ZM64.582494,44.241214C64.582494,44.241214 36.511772,44.241214 36.511772,44.241214 C36.511772,44.241214 56.803907,78.333121 56.803907,78.333121 C56.803907,78.333121 84.874629,78.333121 84.874629,78.333121 C84.874629,78.333121 64.582494,44.241214 64.582494,44.241214 C64.582494,44.241214 64.582494,44.241214 64.582494,44.241214 Z" fill="#94e170"/>
	<path d="M58.713256,45.163991C58.735604,45.161869 77.812524,76.352496 77.812524,76.352496 " fill="#ffffff" stroke="#ffffff" stroke-width="5.000000000000001" stroke-linecap="round" opacity="0.5"/>
	<path d="M64.582494,44.241214C64.582494,44.241214 36.511772,44.241214 36.511772,44.241214 C36.511772,44.241214 56.803907,78.333121 56.803907,78.333121 C56.803907,78.333121 84.874629,78.333121 84.874629,78.333121 C84.874629,78.333121 64.582494,44.241214 64.582494,44.241214 C64.582494,44.241214 64.582494,44.241214 64.582494,44.241214 ZM64.582494,44.241214C64.582494,44.241214 36.511772,44.241214 36.511772,44.241214 C36.511772,44.241214 56.803907,78.333121 56.803907,78.333121 C56.803907,78.333121 84.874629,78.333121 84.874629,78.333121 C84.874629,78.333121 64.582494,44.241214 64.582494,44.241214 C64.582494,44.241214 64.582494,44.241214 64.582494,44.241214 Z" fill="none" stroke="#355027" stroke-width="6" stroke-linejoin="round"/>
	<path d="M32.361066,29.109180C30.895441,29.275094 29.865675,30.418233 30.061115,31.662436 C30.256555,32.906639 31.603131,33.780831 33.068756,33.614917 C33.068756,33.614917 32.361066,29.109180 32.361066,29.109180 C32.361066,29.109180 32.361066,29.109180 32.361066,29.109180 ZM100.000000,26.038938C100.000000,26.038938 102.654064,25.738551 102.654064,25.738551 C102.654064,25.738551 101.946373,21.232813 101.946373,21.232813 C101.946373,21.232813 99.293195,21.533201 99.293195,21.533201 C99.293195,21.533201 100.000000,26.038938 100.000000,26.038938 C100.000000,26.038938 100.000000,26.038938 100.000000,26.038938 ZM33.068756,33.614917C33.068756,33.614917 100.000000,26.038938 100.000000,26.038938 C100.000000,26.038938 99.293195,21.533201 99.293195,21.533201 C99.293195,21.533201 32.361066,29.109180 32.361066,29.109180 C32.361066,29.109180 33.068756,33.614917 33.068756,33.614917 C33.068756,33.614917 33.068756,33.614917 33.068756,33.614917 ZM32.361066,29.109180C30.895441,29.275094 29.865675,30.418233 30.061115,31.662436 C30.256555,32.906639 31.603131,33.780831 33.068756,33.614917 C33.068756,33.614917 32.361066,29.109180 32.361066,29.109180 C32.361066,29.109180 32.361066,29.109180 32.361066,29.109180 ZM100.000000,26.038938C100.000000,26.038938 102.654064,25.738551 102.654064,25.738551 C102.654064,25.738551 101.946373,21.232813 101.946373,21.232813 C101.946373,21.232813 99.293195,21.533201 99.293195,21.533201 C99.293195,21.533201 100.000000,26.038938 100.000000,26.038938 C100.000000,26.038938 100.000000,26.038938 100.000000,26.038938 ZM33.068756,33.614917C33.068756,33.614917 100.000000,26.038938 100.000000,26.038938 C100.000000,26.038938 99.293195,21.533201 99.293195,21.533201 C99.293195,21.533201 32.361066,29.109180 32.361066,29.109180 C32.361066,29.109180 33.068756,33.614917 33.068756,33.614917 C33.068756,33.614917 33.068756,33.614917 33.068756,33.614917 Z" fill="#a99494"/>
	<path d="M70.960344,32.836498C70.463739,33.228557 70.383214,33.943653 70.780476,34.433743 C71.177743,34.923833 71.902343,35.003306 72.398942,34.611249 C72.398942,34.611249 70.960344,32.836498 70.960344,32.836498 C70.960344,32.836498 70.960344,32.836498 70.960344,32.836498 ZM83.913908,25.520073C83.913908,25.520073 84.813075,24.810204 84.813075,24.810204 C84.813075,24.810204 83.374472,23.035454 83.374472,23.035454 C83.374472,23.035454 82.475310,23.745324 82.475310,23.745324 C82.475310,23.745324 83.913908,25.520073 83.913908,25.520073 C83.913908,25.520073 83.913908,25.520073 83.913908,25.520073 ZM72.398942,34.611249C72.398942,34.611249 83.913908,25.520073 83.913908,25.520073 C83.913908,25.520073 82.475310,23.745324 82.475310,23.745324 C82.475310,23.745324 70.960344,32.836498 70.960344,32.836498 C70.960344,32.836498 72.398942,34.611249 72.398942,34.611249 C72.398942,34.611249 72.398942,34.611249 72.398942,34.611249 ZM70.960344,32.836498C70.463739,33.228557 70.383214,33.943653 70.780476,34.433743 C71.177743,34.923833 71.902343,35.003306 72.398942,34.611249 C72.398942,34.611249 70.960344,32.836498 70.960344,32.836498 C70.960344,32.836498 70.960344,32.836498 70.960344,32.836498 ZM83.913908,25.520073C83.913908,25.520073 84.813075,24.810204 84.813075,24.810204 C84.813075,24.810204 83.374472,23.035454 83.374472,23.035454 C83.374472,23.035454 82.475310,23.745324 82.475310,23.745324 C82.475310,23.745324 83.913908,25.520073 83.913908,25.520073 C83.913908,25.520073 83.913908,25.520073 83.913908,25.520073 ZM72.398942,34.611249C72.398942,34.611249 83.913908,25.520073 83.913908,25.520073 C83.913908,25.520073 82.475310,23.745324 82.475310,23.745324 C82.475310,23.745324 70.960344,32.836498 70.960344,32.836498 C70.960344,32.836498 72.398942,34.611249 72.398942,34.611249 C72.398942,34.611249 72.398942,34.611249 72.398942,34.611249 Z" fill="#a99494"/>
	<path d="M43.423131,21.183720C42.814757,21.000988 42.171454,21.339559 41.986293,21.940031 C41.801133,22.540427 42.144202,23.175294 42.752655,23.358027 C42.752655,23.358027 43.423131,21.183720 43.423131,21.183720 C43.423131,21.183720 43.423131,21.183720 43.423131,21.183720 ZM60.408936,28.661212C60.408936,28.661212 61.510532,28.992130 61.510532,28.992130 C61.510532,28.992130 62.181091,26.817749 62.181091,26.817749 C62.181091,26.817749 61.079412,26.486906 61.079412,26.486906 C61.079412,26.486906 60.408936,28.661212 60.408936,28.661212 C60.408936,28.661212 60.408936,28.661212 60.408936,28.661212 ZM42.752655,23.358027C42.752655,23.358027 60.408936,28.661212 60.408936,28.661212 C60.408936,28.661212 61.079412,26.486906 61.079412,26.486906 C61.079412,26.486906 43.423131,21.183720 43.423131,21.183720 C43.423131,21.183720 42.752655,23.358027 42.752655,23.358027 C42.752655,23.358027 42.752655,23.358027 42.752655,23.358027 ZM43.423131,21.183720C42.814757,21.000988 42.171454,21.339559 41.986293,21.940031 C41.801133,22.540427 42.144202,23.175294 42.752655,23.358027 C42.752655,23.358027 43.423131,21.183720 43.423131,21.183720 C43.423131,21.183720 43.423131,21.183720 43.423131,21.183720 ZM60.408936,28.661212C60.408936,28.661212 61.510532,28.992130 61.510532,28.992130 C61.510532,28.992130 62.181091,26.817749 62.181091,26.817749 C62.181091,26.817749 61.079412,26.486906 61.079412,26.486906 C61.079412,26.486906 60.408936,28.661212 60.408936,28.661212 C60.408936,28.661212 60.408936,28.661212 60.408936,28.661212 ZM42.752655,23.358027C42.752655,23.358027 60.408936,28.661212 60.408936,28.661212 C60.408936,28.661212 61.079412,26.486906 61.079412,26.486906 C61.079412,26.486906 43.423131,21.183720 43.423131,21.183720 C43.423131,21.183720 42.752655,23.358027 42.752655,23.358027 C42.752655,23.358027 42.752655,23.358027 42.752655,23.358027 Z" fill="#a99494"/>
	<path d="M45.378349,35.666016C45.378349,35.666016 45.378349,37.890688 45.378349,37.890688 " fill="#000000" stroke="#fd9494" stroke-width="5" stroke-linecap="round" stroke-linejoin="round"/>
	<path d="M60.735832,33.635121C60.735832,33.635121 60.743276,59.393451 60.743276,59.393451 " fill="#000000" stroke="#fd9494" stroke-width="5" stroke-linecap="round" stroke-linejoin="round"/>
	<path d="" fill="#ffffff" stroke="#000000" stroke-width="5"/>
	<path d="" fill="none"/>
	<path d="M14.928987,12.519892C14.937212,12.519892 39.069747,12.519892 39.069747,12.519892 " fill="#ffffff" stroke="#ffffff" stroke-width="7" stroke-linecap="round" opacity="0.6"/>
	<path d="M7.153125,67.520405C7.160611,67.520405 29.126379,67.520405 29.126379,67.520405 " fill="#ffffff" stroke="#ffffff" stroke-width="8" stroke-linecap="round" opacity="0.5"/>
	<path d="M81.998451,90.755994C82.006675,90.755994 106.139210,90.755994 106.139210,90.755994 " fill="#ffffff" stroke="#ffffff" stroke-width="8" stroke-linecap="round" opacity="0.6"/>
	<path d="" fill="#000000"/>
</g></g></svg>